<mxfile host="app.diagrams.net" modified="2024-04-21T08:13:20.114Z" agent="Mozilla/5.0 (Windows NT 10.0; Win64; x64) AppleWebKit/537.36 (KHTML, like Gecko) Chrome/124.0.0.0 Safari/537.36" etag="Qz6hTwCw4iE2XZZmduSR" version="24.2.7" type="github">
  <diagram id="_BYkWjHOk29QroY7nmyN" name="Page-1">
    <mxGraphModel dx="823" dy="516" grid="1" gridSize="10" guides="1" tooltips="1" connect="1" arrows="1" fold="1" page="1" pageScale="1" pageWidth="827" pageHeight="1169" math="0" shadow="0">
      <root>
        <mxCell id="0" />
        <mxCell id="1" parent="0" />
        <mxCell id="2NDhpl2rImddSKcT7an1-9" style="edgeStyle=orthogonalEdgeStyle;rounded=0;orthogonalLoop=1;jettySize=auto;html=1;entryX=0.5;entryY=0;entryDx=0;entryDy=0;" parent="1" source="2NDhpl2rImddSKcT7an1-1" target="2NDhpl2rImddSKcT7an1-2" edge="1">
          <mxGeometry relative="1" as="geometry" />
        </mxCell>
        <mxCell id="2NDhpl2rImddSKcT7an1-1" value="START" style="rounded=1;whiteSpace=wrap;html=1;" parent="1" vertex="1">
          <mxGeometry x="239.5" y="100" width="110" height="40" as="geometry" />
        </mxCell>
        <mxCell id="2NDhpl2rImddSKcT7an1-5" style="edgeStyle=orthogonalEdgeStyle;rounded=0;orthogonalLoop=1;jettySize=auto;html=1;entryX=0.5;entryY=0;entryDx=0;entryDy=0;" parent="1" source="2NDhpl2rImddSKcT7an1-2" target="2NDhpl2rImddSKcT7an1-3" edge="1">
          <mxGeometry relative="1" as="geometry">
            <Array as="points">
              <mxPoint x="172.5" y="210" />
            </Array>
          </mxGeometry>
        </mxCell>
        <mxCell id="2NDhpl2rImddSKcT7an1-6" style="edgeStyle=orthogonalEdgeStyle;rounded=0;orthogonalLoop=1;jettySize=auto;html=1;entryX=0.5;entryY=0;entryDx=0;entryDy=0;" parent="1" source="2NDhpl2rImddSKcT7an1-2" target="2NDhpl2rImddSKcT7an1-10" edge="1">
          <mxGeometry relative="1" as="geometry">
            <mxPoint x="417.5" y="260" as="targetPoint" />
            <Array as="points">
              <mxPoint x="427.5" y="210" />
            </Array>
          </mxGeometry>
        </mxCell>
        <mxCell id="2NDhpl2rImddSKcT7an1-2" value="Is it cleanly &lt;br&gt;divisible by 4?" style="rhombus;whiteSpace=wrap;html=1;" parent="1" vertex="1">
          <mxGeometry x="227" y="170" width="135" height="80" as="geometry" />
        </mxCell>
        <mxCell id="2NDhpl2rImddSKcT7an1-3" value="Not Leap" style="rounded=1;whiteSpace=wrap;html=1;fillColor=#f8cecc;strokeColor=#b85450;" parent="1" vertex="1">
          <mxGeometry x="117" y="260" width="110" height="40" as="geometry" />
        </mxCell>
        <mxCell id="2NDhpl2rImddSKcT7an1-7" value="No" style="text;html=1;align=center;verticalAlign=middle;resizable=0;points=[];autosize=1;" parent="1" vertex="1">
          <mxGeometry x="189.5" y="190" width="30" height="20" as="geometry" />
        </mxCell>
        <mxCell id="2NDhpl2rImddSKcT7an1-8" value="Yes" style="text;html=1;align=center;verticalAlign=middle;resizable=0;points=[];autosize=1;" parent="1" vertex="1">
          <mxGeometry x="369.5" y="190" width="40" height="20" as="geometry" />
        </mxCell>
        <mxCell id="2NDhpl2rImddSKcT7an1-13" style="edgeStyle=orthogonalEdgeStyle;rounded=0;orthogonalLoop=1;jettySize=auto;html=1;exitX=0;exitY=0.5;exitDx=0;exitDy=0;entryX=0.5;entryY=0;entryDx=0;entryDy=0;" parent="1" source="2NDhpl2rImddSKcT7an1-10" target="2NDhpl2rImddSKcT7an1-12" edge="1">
          <mxGeometry relative="1" as="geometry" />
        </mxCell>
        <mxCell id="2NDhpl2rImddSKcT7an1-18" style="edgeStyle=orthogonalEdgeStyle;rounded=0;orthogonalLoop=1;jettySize=auto;html=1;exitX=1;exitY=0.5;exitDx=0;exitDy=0;entryX=0.5;entryY=0;entryDx=0;entryDy=0;" parent="1" source="2NDhpl2rImddSKcT7an1-10" target="2NDhpl2rImddSKcT7an1-14" edge="1">
          <mxGeometry relative="1" as="geometry" />
        </mxCell>
        <mxCell id="2NDhpl2rImddSKcT7an1-10" value="Is it cleanly &lt;br&gt;divisible by 100?" style="rhombus;whiteSpace=wrap;html=1;" parent="1" vertex="1">
          <mxGeometry x="362" y="260" width="130" height="80" as="geometry" />
        </mxCell>
        <mxCell id="2NDhpl2rImddSKcT7an1-12" value="Leap" style="rounded=1;whiteSpace=wrap;html=1;fillColor=#d5e8d4;strokeColor=#82b366;" parent="1" vertex="1">
          <mxGeometry x="252" y="370" width="110" height="40" as="geometry" />
        </mxCell>
        <mxCell id="2NDhpl2rImddSKcT7an1-25" style="edgeStyle=orthogonalEdgeStyle;rounded=0;orthogonalLoop=1;jettySize=auto;html=1;exitX=0;exitY=0.5;exitDx=0;exitDy=0;entryX=0.5;entryY=0;entryDx=0;entryDy=0;" parent="1" source="2NDhpl2rImddSKcT7an1-14" target="2NDhpl2rImddSKcT7an1-24" edge="1">
          <mxGeometry relative="1" as="geometry" />
        </mxCell>
        <mxCell id="2NDhpl2rImddSKcT7an1-26" style="edgeStyle=orthogonalEdgeStyle;rounded=0;orthogonalLoop=1;jettySize=auto;html=1;exitX=1;exitY=0.5;exitDx=0;exitDy=0;entryX=0.5;entryY=0;entryDx=0;entryDy=0;" parent="1" source="2NDhpl2rImddSKcT7an1-14" target="2NDhpl2rImddSKcT7an1-19" edge="1">
          <mxGeometry relative="1" as="geometry" />
        </mxCell>
        <mxCell id="2NDhpl2rImddSKcT7an1-14" value="Is it cleanly &lt;br&gt;divisible by 400?" style="rhombus;whiteSpace=wrap;html=1;" parent="1" vertex="1">
          <mxGeometry x="459.5" y="370" width="140" height="80" as="geometry" />
        </mxCell>
        <mxCell id="2NDhpl2rImddSKcT7an1-19" value="Leap" style="rounded=1;whiteSpace=wrap;html=1;fillColor=#d5e8d4;strokeColor=#82b366;" parent="1" vertex="1">
          <mxGeometry x="599.5" y="490" width="110" height="40" as="geometry" />
        </mxCell>
        <mxCell id="2NDhpl2rImddSKcT7an1-20" value="Yes" style="text;html=1;align=center;verticalAlign=middle;resizable=0;points=[];autosize=1;" parent="1" vertex="1">
          <mxGeometry x="492" y="280" width="40" height="20" as="geometry" />
        </mxCell>
        <mxCell id="2NDhpl2rImddSKcT7an1-21" value="No" style="text;html=1;align=center;verticalAlign=middle;resizable=0;points=[];autosize=1;" parent="1" vertex="1">
          <mxGeometry x="319.5" y="280" width="30" height="20" as="geometry" />
        </mxCell>
        <mxCell id="2NDhpl2rImddSKcT7an1-22" value="No" style="text;html=1;align=center;verticalAlign=middle;resizable=0;points=[];autosize=1;" parent="1" vertex="1">
          <mxGeometry x="419.5" y="390" width="30" height="20" as="geometry" />
        </mxCell>
        <mxCell id="2NDhpl2rImddSKcT7an1-23" value="Yes" style="text;html=1;align=center;verticalAlign=middle;resizable=0;points=[];autosize=1;" parent="1" vertex="1">
          <mxGeometry x="599.5" y="390" width="40" height="20" as="geometry" />
        </mxCell>
        <mxCell id="2NDhpl2rImddSKcT7an1-24" value="Not Leap" style="rounded=1;whiteSpace=wrap;html=1;fillColor=#f8cecc;strokeColor=#b85450;" parent="1" vertex="1">
          <mxGeometry x="349.5" y="490" width="110" height="40" as="geometry" />
        </mxCell>
      </root>
    </mxGraphModel>
  </diagram>
</mxfile>
